<svg xmlns="http://www.w3.org/2000/svg" version="1.1" xmlns:xlink="http://www.w3.org/1999/xlink" xmlns:svgjs="http://svgjs.com/svgjs" width="1240" height="720" preserveAspectRatio="none" viewBox="0 0 1240 720"><g mask="url(&quot;#SvgjsMask1003&quot;)" fill="none"><rect width="1240" height="720" x="0" y="0" fill="#0e2a47"></rect><path d="M636.74 788.6C756.26 720.16 646.69 355.62 913.39 312.19 1180.09 268.76 1318.24 99.97 1466.68 96.19" stroke="rgba(51,121,194,0.58)" stroke-width="2"></path><path d="M439.18 806.27C554.13 804.06 626.77 668.26 872.95 653.52 1119.12 638.78 1173.41 352.98 1306.71 336.72" stroke="rgba(51,121,194,0.58)" stroke-width="2"></path><path d="M697.02 737.19C815.6 704.35 799.24 429.08 1029.05 373.89 1258.86 318.7 1249.88 87.01 1361.08 64.29" stroke="rgba(51,121,194,0.58)" stroke-width="2"></path><path d="M227.51 863.77C383.17 849.35 450.04 545.1 752.35 523.83 1054.66 502.56 1130.24 264.91 1277.19 257.43" stroke="rgba(51,121,194,0.58)" stroke-width="2"></path><path d="M351.73 748.33C478.37 714.87 516.7 371.68 710.14 366.14 903.58 360.6 889.34 456.14 1068.55 456.14 1247.76 456.14 1334.58 366.82 1426.96 366.14" stroke="rgba(51,121,194,0.58)" stroke-width="2"></path></g><defs><mask id="SvgjsMask1003"><rect width="1240" height="720" fill="#ffffff"></rect></mask></defs></svg>