<svg xmlns="http://www.w3.org/2000/svg" version="1.1" xmlns:xlink="http://www.w3.org/1999/xlink" xmlns:svgjs="http://svgjs.com/svgjs" width="1240" height="720" preserveAspectRatio="none" viewBox="0 0 1240 720"><g mask="url(&quot;#SvgjsMask1015&quot;)" fill="none"><rect width="1240" height="720" x="0" y="0" fill="#0e2a47"></rect><path d="M-185.16 260.55C-66.54 253.75 37.5 10.18 234.44 37.35 431.38 64.52 332.1 599.56 444.24 746.58" stroke="rgba(51,121,194,0.58)" stroke-width="2"></path><path d="M-64.06 186.9C49.58 192.94 81.06 354.03 340.44 395.7 599.83 437.37 597.89 813.61 744.95 857.57" stroke="rgba(51,121,194,0.58)" stroke-width="2"></path><path d="M-213.09 424.94C-109.19 425.48-10.21 514.94 192.67 514.94 395.55 514.94 383.62 420.92 598.44 424.94 813.25 428.96 869.07 770.99 1004.2 797.82" stroke="rgba(51,121,194,0.58)" stroke-width="2"></path><path d="M-172.49 195C-22.26 197.66 139.14 362.28 396.22 389.4 653.29 416.52 568.81 733.88 680.57 779.36" stroke="rgba(51,121,194,0.58)" stroke-width="2"></path><path d="M-202.87 234.69C-86.94 243.43-42.23 448.56 196.87 472.29 435.96 496.02 473.25 752.61 596.6 768.11" stroke="rgba(51,121,194,0.58)" stroke-width="2"></path></g><defs><mask id="SvgjsMask1015"><rect width="1240" height="720" fill="#ffffff"></rect></mask></defs></svg>