<svg xmlns="http://www.w3.org/2000/svg" version="1.1" xmlns:xlink="http://www.w3.org/1999/xlink" xmlns:svgjs="http://svgjs.com/svgjs" width="1440" height="560" preserveAspectRatio="none" viewBox="0 0 1440 560"><g mask="url(&quot;#SvgjsMask1078&quot;)" fill="none"><rect width="1440" height="560" x="0" y="0" fill="url(#SvgjsLinearGradient1079)"></rect><path d="M1440 0L1171.97 0L1440 245.81z" fill="rgba(255, 255, 255, .1)"></path><path d="M1171.97 0L1440 245.81L1440 301.29L756.58 0z" fill="rgba(255, 255, 255, .075)"></path><path d="M756.58 0L1440 301.29L1440 312.89000000000004L685 0z" fill="rgba(255, 255, 255, .05)"></path><path d="M685 0L1440 312.89000000000004L1440 436.77000000000004L380.8 0z" fill="rgba(255, 255, 255, .025)"></path><path d="M0 560L123.72 560L0 282.67z" fill="rgba(0, 0, 0, .1)"></path><path d="M0 282.67L123.72 560L714.6800000000001 560L0 127.49000000000001z" fill="rgba(0, 0, 0, .075)"></path><path d="M0 127.49000000000001L714.6800000000001 560L991.3500000000001 560L0 83.46000000000001z" fill="rgba(0, 0, 0, .05)"></path><path d="M0 83.46000000000004L991.3500000000001 560L1061.5400000000002 560L0 45.51000000000003z" fill="rgba(0, 0, 0, .025)"></path></g><defs><mask id="SvgjsMask1078"><rect width="1440" height="560" fill="#ffffff"></rect></mask><linearGradient x1="15.28%" y1="-39.29%" x2="84.72%" y2="139.29%" gradientUnits="userSpaceOnUse" id="SvgjsLinearGradient1079"><stop stop-color="#0e2a47" offset="0"></stop><stop stop-color="rgba(4, 47, 103, 1)" offset="1"></stop></linearGradient></defs></svg>